<?xml version="1.0" standalone="no"?>
<!DOCTYPE svg PUBLIC "-//W3C//DTD SVG 20010904//EN"
 "http://www.w3.org/TR/2001/REC-SVG-20010904/DTD/svg10.dtd">
<svg version="1.0" xmlns="http://www.w3.org/2000/svg"
 width="1024.000000pt" height="775.000000pt" viewBox="0 0 1024.000000 775.000000"
 preserveAspectRatio="xMidYMid meet">

<g transform="translate(0.000000,775.000000) scale(0.100000,-0.100000)"
fill="#000000" stroke="none">
<path d="M0 7215 c0 -294 3 -535 8 -535 4 0 15 9 25 20 9 11 12 20 7 20 -6 0
-10 4 -10 9 0 13 63 20 77 9 15 -12 33 -2 33 17 0 8 11 17 25 21 17 4 34 22
50 53 13 25 25 39 26 31 1 -8 5 7 10 34 6 37 4 52 -6 63 -8 8 -17 36 -21 64
-5 35 -11 49 -20 45 -14 -5 -24 14 -24 47 0 11 -8 29 -17 39 -14 16 -15 23 -5
38 7 11 12 28 12 38 0 42 60 75 134 73 56 -1 73 -22 80 -101 8 -78 2 -110 -20
-110 -8 0 -14 -4 -14 -10 0 -5 7 -10 15 -10 8 0 15 -4 15 -10 0 -5 -6 -10 -12
-10 -7 0 -30 -23 -50 -50 -21 -28 -33 -50 -27 -50 5 0 2 -11 -6 -24 -14 -21
-14 -32 -4 -85 8 -38 18 -61 26 -61 17 0 62 -50 63 -70 1 -19 30 -54 50 -62
19 -7 25 -65 10 -103 -7 -20 -8 -31 0 -39 13 -13 13 -46 0 -46 -5 0 -14 -19
-21 -42 -6 -23 -17 -47 -24 -53 -8 -5 -16 -30 -19 -55 -3 -25 -5 -46 -5 -47
-3 -9 -40 -1 -44 10 -4 8 -6 9 -6 0 -1 -6 -6 -24 -11 -38 -8 -21 -13 -25 -24
-16 -10 8 -16 8 -26 -4 -7 -8 -21 -15 -31 -15 -12 0 -16 -5 -13 -15 5 -12 -2
-15 -29 -15 -20 0 -39 -5 -42 -10 -4 -7 -31 -8 -71 -4 l-64 7 0 -3082 0 -3081
5120 0 5120 0 0 3875 0 3875 -150 0 c-119 0 -148 -3 -144 -13 8 -23 -65 -87
-100 -87 -8 0 -22 -8 -32 -17 -25 -25 -145 -29 -130 -5 2 4 -4 32 -14 62 -16
48 -22 55 -48 58 -29 3 -53 -18 -105 -92 -10 -14 -26 -26 -36 -26 -16 0 -111
-119 -111 -139 0 -6 -21 -13 -46 -17 -34 -5 -48 -12 -56 -29 -21 -47 -124 -53
-245 -14 -46 15 -63 25 -59 35 3 8 1 14 -5 14 -6 0 -8 4 -4 9 3 5 1 12 -5 16
-5 3 -10 16 -10 27 0 12 -6 29 -14 37 -16 18 -27 119 -15 127 5 3 9 16 9 30
l0 24 -4460 0 -4460 0 0 -535z m9830 385 c12 -8 11 -10 -7 -10 -13 0 -23 5
-23 10 0 13 11 13 30 0z m-4 -75 c10 -8 14 -15 7 -15 -7 0 -10 -7 -7 -15 7
-18 -18 -29 -49 -21 -18 4 -24 13 -25 36 -1 26 3 30 27 30 15 0 36 -7 47 -15z
m48 -177 c8 -5 -32 -28 -50 -28 -6 0 -5 46 2 65 6 14 9 13 22 -7 9 -13 20 -26
26 -30z m-78 -45 c-10 -10 -19 5 -10 18 6 11 8 11 12 0 2 -7 1 -15 -2 -18z
m46 -223 l-6 -55 -7 50 c-6 53 -2 82 11 68 5 -4 5 -33 2 -63z m-2 -94 c0 -7 7
-19 15 -26 20 -16 2 -40 -30 -40 -20 0 -23 5 -21 33 4 47 5 47 21 47 8 0 15
-6 15 -14z m-185 -407 c5 -5 21 -9 35 -9 48 0 170 -104 170 -145 0 -12 5 -26
11 -32 14 -14 13 -133 0 -146 -6 -6 -11 -17 -11 -24 0 -23 -71 -99 -101 -108
-11 -4 -19 -11 -19 -16 0 -5 -20 -9 -44 -9 -25 0 -48 -4 -51 -10 -3 -5 -30
-10 -60 -10 -30 0 -57 5 -60 10 -3 6 -21 10 -38 10 -22 0 -36 7 -45 20 -7 12
-16 19 -21 16 -4 -3 -14 4 -22 16 -8 11 -24 31 -35 43 -12 12 -27 39 -34 60
-16 48 -17 142 -1 158 6 6 11 19 11 29 0 10 5 18 10 18 6 0 10 9 10 19 0 11
11 28 25 39 14 11 25 24 25 30 0 6 14 16 30 24 17 7 30 16 30 20 0 16 167 14
185 -3z m-3657 -236 c-2 -10 -13 -22 -26 -28 -19 -8 -22 -17 -22 -62 0 -29 -4
-53 -10 -53 -5 0 -10 -12 -10 -27 0 -29 -25 -63 -46 -63 -24 0 -37 38 -25 72
14 40 15 37 -19 49 -36 13 -38 35 -6 60 14 11 28 28 31 39 6 20 26 27 93 29
36 1 43 -2 40 -16z m-331 -98 c0 -8 -6 -15 -14 -15 -7 0 -13 -4 -13 -10 0 -5
-8 -10 -17 -10 -10 0 -28 -15 -41 -34 -13 -19 -32 -36 -43 -39 -18 -5 -20 -2
-13 26 10 46 25 66 56 72 15 4 30 11 33 16 10 15 52 10 52 -6z m-4448 -213 c7
-12 12 -13 23 -4 11 9 20 5 42 -18 15 -17 32 -30 37 -30 5 0 14 -11 19 -25 7
-17 14 -23 26 -18 12 4 15 2 12 -8 -3 -8 3 -29 14 -47 25 -41 18 -82 -15 -82
-18 0 -19 -2 -7 -10 11 -7 5 -10 -23 -10 -23 0 -36 -4 -32 -10 4 -6 -5 -10
-20 -10 -14 0 -33 -4 -43 -9 -51 -27 -229 -71 -284 -71 -17 0 -65 91 -76 145
-11 53 12 123 45 136 13 5 22 14 21 20 -2 7 11 15 27 19 17 4 45 16 64 28 43
26 156 29 170 4z m7151 -315 c0 -19 32 -47 54 -47 15 0 27 -13 40 -42 20 -43
23 -75 11 -140 -4 -21 -2 -52 5 -74 10 -28 10 -39 1 -42 -6 -2 -11 -15 -11
-29 0 -26 -55 -104 -69 -100 -11 3 -71 -50 -71 -62 0 -11 -60 9 -77 26 -7 6
-10 20 -7 30 4 13 3 14 -4 5 -7 -11 -10 -11 -15 2 -4 9 -18 16 -32 16 -18 0
-25 5 -25 19 0 11 -16 35 -36 53 -32 31 -36 40 -41 104 -6 83 9 147 43 181 13
13 24 30 24 38 0 21 63 65 96 66 16 0 38 4 48 8 25 10 66 2 66 -12z m1067
-172 c-7 -14 -19 -25 -27 -26 -10 0 -9 -3 4 -8 14 -5 16 -10 7 -15 -7 -5 -15
-5 -18 -2 -3 3 -18 -1 -34 -9 -15 -8 -49 -15 -74 -15 -47 0 -105 -29 -105 -52
0 -5 -12 -19 -26 -30 -14 -12 -30 -30 -34 -42 -16 -39 -11 24 5 69 8 22 15 48
15 58 0 19 20 58 35 69 6 4 28 8 50 9 35 1 37 2 15 9 -16 5 15 8 87 9 l111 1
-11 -25z m53 -15 c0 -5 -2 -10 -4 -10 -3 0 -8 5 -11 10 -3 6 -1 10 4 10 6 0
11 -4 11 -10z m-7180 -68 c0 -4 -4 -13 -9 -21 -12 -19 -31 -4 -31 25 0 22 3
23 20 14 11 -6 20 -14 20 -18z m1366 11 c-25 -4 -70 -33 -50 -33 3 0 1 -6 -5
-14 -9 -11 -9 -15 1 -19 21 -9 -24 -7 -63 2 -25 6 -43 4 -60 -5 -29 -16 -30
-16 -49 -4 -12 7 -12 12 4 29 14 15 31 21 63 21 26 0 51 6 59 15 11 10 33 15
72 14 32 -1 44 -4 28 -6z m-356 -31 c0 -5 16 -16 35 -25 43 -20 38 -41 -13
-58 -21 -6 -52 -25 -70 -40 -18 -16 -37 -29 -42 -29 -15 0 -12 26 5 40 8 7 15
26 15 42 0 37 27 78 51 78 11 0 19 -4 19 -8z m500 -79 c25 -21 26 -50 3 -56
-10 -2 0 -7 22 -11 45 -8 67 -18 72 -32 7 -21 -17 -34 -75 -40 -52 -6 -66 -4
-82 11 -17 15 -18 20 -6 44 8 15 10 35 6 46 -18 49 19 72 60 38z m5374 -99
c25 -10 18 -24 -12 -24 -15 0 -39 -11 -54 -25 l-26 -24 -6 25 c-9 33 1 49 20
33 9 -7 14 -8 14 -1 0 6 10 13 23 15 12 2 23 5 24 6 1 0 8 -2 17 -5z m-6124
-118 c0 -8 -9 -24 -20 -37 l-19 -24 -1 28 c0 17 5 27 15 27 8 0 15 5 15 10 0
6 2 10 5 10 3 0 5 -6 5 -14z m6240 -197 c-7 -41 -14 -80 -16 -87 -2 -7 -3 -15
-3 -17 0 -13 -31 -35 -50 -35 -17 0 -21 6 -21 30 0 17 4 38 9 48 6 9 13 34 16
55 3 20 10 37 15 37 6 0 10 7 10 15 0 8 6 24 12 35 11 17 15 18 26 6 12 -12
12 -26 2 -87z m-8742 78 c-1 -2 2 -10 8 -18 8 -11 6 -18 -8 -31 -10 -10 -18
-14 -18 -9 0 20 13 71 17 67 3 -2 3 -6 1 -9z m1663 -94 c13 -27 26 -50 30 -53
9 -8 39 -107 39 -130 0 -12 7 -28 16 -37 8 -9 13 -21 10 -28 -3 -8 2 -16 10
-19 8 -3 14 1 14 9 0 31 16 13 39 -45 13 -33 30 -65 38 -71 7 -6 13 -17 13
-25 0 -7 10 -30 22 -51 12 -20 23 -44 25 -52 1 -8 7 -17 13 -21 7 -4 14 -29
16 -56 2 -27 1 -41 -2 -31 -3 9 -10 15 -15 12 -5 -4 -9 1 -9 9 0 9 -3 16 -7
16 -5 0 -16 14 -25 31 -10 17 -22 28 -26 25 -5 -3 -17 9 -27 27 -11 18 -29 42
-42 55 -13 13 -23 26 -23 31 0 4 -8 16 -18 27 -9 10 -22 30 -28 45 -10 21 -9
27 8 41 16 13 17 19 7 42 -11 23 -16 27 -35 25 -3 0 -19 17 -35 38 -16 21 -42
51 -57 68 -42 46 -52 67 -40 90 7 15 53 68 64 74 0 1 12 -20 25 -46z m5090 10
c26 -21 48 -44 49 -50 0 -7 5 -13 10 -13 6 0 22 -10 35 -22 13 -13 42 -39 65
-58 23 -19 48 -41 55 -47 8 -7 19 -13 26 -13 7 0 9 -3 6 -6 -7 -7 67 -64 83
-64 5 0 10 -4 10 -8 0 -5 18 -16 40 -26 22 -10 40 -21 40 -26 0 -4 8 -10 18
-12 21 -6 50 -57 37 -66 -16 -11 -45 -72 -45 -93 0 -11 -4 -17 -10 -14 -5 3
-10 -3 -10 -15 0 -11 -4 -28 -10 -38 -5 -9 -16 -34 -24 -54 -8 -21 -22 -38
-30 -38 -9 0 -16 -6 -16 -13 0 -7 -9 -23 -20 -35 -11 -12 -20 -28 -20 -36 0
-8 -4 -17 -9 -20 -4 -3 -11 -22 -14 -41 -4 -23 -19 -49 -43 -73 l-36 -36 26
-9 c21 -7 26 -15 26 -43 0 -21 -4 -33 -10 -29 -6 4 -10 -19 -10 -61 0 -50 -5
-75 -21 -101 -16 -26 -18 -37 -10 -47 14 -17 0 -29 -22 -20 -10 3 -17 -4 -21
-22 -6 -22 -9 -25 -17 -13 -7 11 -9 8 -10 -11 -1 -14 -1 -29 0 -34 1 -4 -8
-27 -19 -51 -12 -25 -19 -54 -16 -70 4 -21 -1 -30 -22 -42 -41 -24 -71 -76
-70 -124 0 -36 4 -43 29 -53 19 -7 29 -17 29 -32 0 -27 -35 -60 -45 -44 -10
16 -25 -7 -25 -37 0 -13 -6 -23 -14 -23 -26 0 -64 -39 -59 -60 4 -14 -3 -30
-18 -46 -13 -14 -23 -29 -21 -32 6 -13 -9 -72 -18 -72 -6 0 -10 -9 -10 -20 0
-10 -6 -23 -14 -27 -7 -4 -15 -13 -17 -20 -5 -13 -172 -168 -206 -191 -13 -8
-23 -23 -23 -33 0 -12 -10 -21 -25 -25 -14 -3 -25 -11 -25 -16 0 -5 6 -7 13
-4 6 3 20 9 30 12 9 4 20 17 23 30 3 13 12 24 20 24 8 0 14 7 14 16 0 8 4 12
10 9 9 -5 55 22 88 53 7 6 22 12 33 12 11 0 22 7 25 15 4 9 19 15 35 15 16 0
29 5 29 10 0 6 4 10 9 10 5 0 8 -8 6 -17 -2 -10 -4 -22 -4 -26 -1 -5 -5 -5
-11 -2 -5 3 -10 -3 -10 -14 0 -12 -4 -21 -10 -21 -5 0 -10 -6 -10 -13 0 -8 -9
-22 -20 -32 -11 -10 -20 -23 -20 -28 0 -6 -7 -19 -17 -29 -9 -10 -13 -21 -9
-25 4 -4 11 -1 16 7 7 11 10 6 10 -17 0 -23 -5 -33 -15 -33 -8 0 -15 -7 -15
-15 0 -9 -7 -18 -15 -21 -8 -4 -13 -10 -10 -14 4 -7 -23 -82 -45 -122 -7 -13
-5 -20 8 -27 15 -10 15 -11 -6 -17 -21 -6 -23 -11 -18 -38 4 -22 3 -27 -4 -16
-8 12 -10 11 -10 -8 0 -13 -5 -33 -12 -45 -7 -12 -12 -29 -13 -37 0 -22 -92
-68 -152 -75 -46 -7 -52 -5 -58 13 -3 12 1 42 9 66 9 25 17 59 18 76 1 16 6
30 10 30 4 0 8 11 8 23 0 13 7 39 17 57 16 33 17 64 11 270 -2 80 16 218 31
233 6 6 11 34 11 62 0 28 4 55 9 61 8 8 27 128 30 189 10 208 14 262 22 270 5
5 9 62 9 127 0 65 4 118 9 118 11 0 30 97 38 199 3 45 10 84 15 87 4 3 8 15 8
28 0 12 4 26 9 31 5 6 12 30 15 55 3 25 10 59 15 75 5 17 14 57 20 90 7 33 17
76 23 95 13 39 26 104 35 165 3 22 8 42 12 45 8 6 32 108 38 165 3 22 9 44 14
50 5 5 9 22 9 37 0 15 4 28 9 28 5 0 12 11 15 25 4 14 11 25 16 25 6 0 10 11
10 25 0 37 32 32 91 -12z m-6791 16 c0 -7 9 -9 22 -6 24 7 58 -17 58 -39 0 -7
-9 -18 -20 -24 -11 -6 -18 -15 -15 -20 3 -5 1 -11 -5 -15 -5 -3 -10 -1 -10 4
0 6 -4 11 -10 11 -5 0 -9 -6 -7 -12 3 -17 -95 -18 -100 -2 -5 15 26 46 37 39
5 -3 14 13 20 35 10 36 30 56 30 29z m1727 -281 c-3 -8 -6 -5 -6 6 -1 11 2 17
5 13 3 -3 4 -12 1 -19z m3691 -114 c4 -61 -17 -48 -25 16 -5 34 -3 42 8 38 9
-3 15 -23 17 -54z m-460 14 c6 -13 13 -63 16 -113 8 -185 49 -388 93 -457 13
-21 23 -50 23 -66 0 -17 10 -37 24 -51 20 -19 24 -35 29 -109 11 -152 19 -217
27 -222 5 -3 10 -32 13 -65 2 -33 9 -71 15 -85 17 -43 47 -223 44 -270 -1 -8
-3 -67 -5 -130 -5 -139 -4 -132 -20 -128 -16 4 -60 -31 -75 -59 -21 -38 -13
-113 12 -113 18 0 48 -58 41 -80 -3 -10 -1 -29 5 -40 16 -30 3 -60 -25 -60
-27 0 -40 -25 -22 -42 10 -9 11 -27 5 -72 -5 -33 -6 -67 -2 -76 3 -8 8 -31 10
-50 2 -19 6 -44 9 -56 2 -11 -2 -29 -10 -40 -16 -21 -20 -38 -6 -30 15 10 36
-23 23 -36 -8 -8 -13 -7 -18 5 -3 9 -13 17 -21 17 -12 0 -13 -3 -3 -15 6 -8 9
-23 5 -35 -4 -11 -2 -20 4 -20 13 0 61 -81 61 -103 0 -8 6 -17 13 -20 6 -2 9
-8 5 -12 -5 -5 -16 -1 -25 8 -12 10 -28 13 -45 10 -33 -6 -36 -19 -7 -26 12
-3 18 -10 15 -16 -4 -6 -13 -8 -20 -5 -23 9 -27 -25 -5 -47 11 -11 18 -27 15
-34 -3 -8 0 -15 6 -17 6 -2 12 -16 12 -30 1 -23 -2 -26 -27 -26 -17 1 -31 8
-34 17 -3 9 -9 25 -14 36 -4 11 -8 37 -7 57 2 29 -5 45 -25 66 -15 15 -27 33
-27 40 0 7 -4 12 -10 12 -5 0 -10 8 -10 18 0 9 -9 32 -20 50 -11 17 -18 32
-16 32 2 0 -12 17 -30 37 -19 20 -34 43 -34 50 0 7 -4 13 -8 13 -5 0 -9 7 -9
15 0 10 6 14 14 10 8 -3 25 -5 38 -5 16 0 25 -8 30 -27 l8 -28 7 27 c12 40 2
67 -21 61 -18 -5 -24 6 -20 31 1 5 -3 22 -9 39 -5 16 -6 35 -2 41 5 6 9 23 10
38 1 15 2 31 3 35 7 44 -22 67 -67 53 -26 -7 -27 -8 -5 -9 19 -1 21 -4 12 -15
-9 -11 -10 -20 -1 -36 8 -15 8 -27 -2 -47 -17 -34 -38 -41 -38 -14 0 12 -7 24
-15 27 -8 3 -17 21 -21 40 -3 19 -10 34 -15 34 -5 0 -8 3 -8 8 4 23 -2 52 -10
48 -5 -3 -12 9 -15 28 -4 18 -15 41 -26 51 -11 10 -20 31 -20 47 0 15 -4 28
-10 28 -5 0 -10 8 -10 19 0 10 -6 23 -13 29 -7 6 -19 27 -27 47 -7 19 -17 35
-22 35 -4 0 -8 12 -8 28 0 15 -4 42 -9 59 -11 39 -2 48 33 32 13 -6 37 -8 51
-5 25 6 27 10 22 41 -3 19 -1 37 5 41 6 4 6 10 -1 17 -6 6 -11 21 -11 34 0 15
-10 28 -28 37 -27 14 -30 13 -50 -6 -23 -23 -55 -18 -46 7 3 8 2 15 -4 15 -6
0 -15 -12 -20 -27 -9 -25 -10 -23 -11 23 -1 38 -5 54 -17 58 -10 4 -14 14 -11
26 3 12 0 20 -7 20 -13 0 -46 71 -46 100 0 11 -4 20 -10 20 -6 0 -10 28 -10
65 0 36 -3 65 -8 65 -7 0 -30 92 -39 163 -3 20 -9 37 -14 37 -5 0 -9 26 -9 58
0 32 -4 62 -9 67 -8 9 -12 30 -25 125 -8 56 -19 100 -25 100 -4 0 -8 33 -9 72
0 41 -6 74 -12 76 -5 2 -10 15 -10 28 0 17 6 24 20 24 11 0 20 5 20 10 0 6 14
10 32 10 52 0 168 41 168 60 0 5 9 10 20 10 12 0 20 7 20 17 0 9 3 14 6 11 3
-4 39 27 81 68 41 41 79 74 83 74 5 0 11 8 14 18 4 9 35 34 70 55 36 21 70 45
77 53 16 19 24 18 37 -8z m-2521 -128 c9 -24 9 -33 -4 -45 -8 -8 -19 -15 -24
-15 -5 0 -24 -15 -43 -34 -20 -18 -37 -31 -40 -29 -2 2 -7 -5 -11 -16 -3 -12
-11 -21 -16 -21 -5 0 -9 -6 -9 -13 0 -7 -9 -19 -19 -27 -11 -7 -18 -17 -15
-22 3 -4 0 -8 -5 -8 -6 0 -11 -17 -10 -37 0 -21 3 -32 6 -25 2 6 11 12 20 12
17 0 43 24 43 39 0 10 14 15 33 12 5 -1 6 2 4 6 -3 5 1 14 9 21 12 11 14 10
15 -5 0 -16 1 -16 9 2 8 19 9 19 9 -2 1 -13 -4 -23 -10 -23 -5 0 -8 -3 -6 -7
3 -5 -12 -39 -34 -78 -57 -104 -65 -124 -84 -198 -11 -43 -24 -71 -36 -78 -15
-8 -19 -6 -19 8 0 10 -7 31 -15 47 -8 15 -15 44 -15 62 0 20 -5 34 -12 34 -9
0 -8 4 2 10 12 8 11 10 -7 10 -31 0 -42 44 -20 83 10 16 17 35 17 43 0 8 5 14
10 14 6 0 10 9 10 20 0 23 20 70 30 70 4 0 22 22 41 50 19 27 37 50 42 50 4 0
7 7 7 15 0 8 5 15 10 15 13 0 60 45 60 58 0 15 24 32 45 32 14 0 24 -10 32
-30z m-2224 -41 c-6 -6 -9 -17 -7 -24 6 -15 -23 -28 -31 -15 -8 13 17 50 34
50 11 0 12 -3 4 -11z m72 -78 c-4 -14 -17 -35 -31 -47 -18 -17 -22 -30 -18
-51 4 -24 0 -31 -26 -46 -18 -9 -36 -15 -41 -11 -5 3 -9 -2 -9 -10 0 -21 -6
-20 -29 3 -17 17 -24 69 -11 81 3 3 11 17 17 33 13 28 6 36 -15 15 -7 -7 -12
-8 -12 -2 0 20 23 34 37 22 10 -8 17 -7 26 5 7 8 23 17 37 19 17 2 26 10 28
26 2 16 8 22 18 18 8 -3 14 0 15 7 0 7 5 1 10 -13 6 -13 7 -36 4 -49z m-272
-61 c-5 -39 8 -56 21 -27 5 10 7 10 12 0 3 -7 19 -13 35 -13 16 0 29 -5 29
-11 0 -6 -8 -8 -19 -4 -10 3 -24 -1 -31 -10 -7 -9 -21 -13 -31 -10 -14 5 -22
-1 -31 -19 -6 -14 -17 -26 -25 -26 -7 0 -13 -11 -13 -25 0 -14 -4 -25 -10 -25
-5 0 -10 -7 -10 -15 0 -8 -9 -24 -20 -35 -12 -12 -18 -26 -14 -32 4 -6 8 -18
9 -27 4 -42 30 -111 42 -113 10 -2 15 -26 16 -86 1 -53 7 -86 15 -91 19 -12
-42 -65 -68 -58 -14 3 -24 -1 -31 -15 -8 -15 -13 -17 -25 -7 -8 6 -14 17 -14
23 0 17 -141 146 -159 146 -16 0 -21 32 -16 108 3 43 12 83 21 97 11 17 17 48
17 90 1 43 5 66 14 69 7 3 13 12 13 21 0 8 6 15 13 15 8 0 39 8 70 18 41 14
59 16 68 8 8 -8 13 -8 16 2 6 15 33 16 33 1 0 -14 47 48 56 74 12 32 22 17 17
-23z m7410 23 c-7 -2 -19 -2 -25 0 -7 3 -2 5 12 5 14 0 19 -2 13 -5z m42 -13
c3 -5 -1 -10 -10 -10 -9 0 -13 5 -10 10 3 6 8 10 10 10 2 0 7 -4 10 -10z
m-1631 -113 c3 4 6 1 6 -5 0 -7 5 -12 12 -12 6 0 28 -18 49 -39 36 -39 36 -40
25 -85 -7 -25 -22 -56 -34 -69 -12 -13 -22 -28 -22 -33 0 -14 -47 -31 -114
-42 -45 -7 -65 -6 -85 4 -14 8 -22 14 -18 14 7 0 0 10 -30 45 -17 18 -16 22 3
29 8 3 12 2 9 -4 -4 -6 5 -10 20 -10 15 0 24 -4 20 -10 -3 -5 -3 -10 2 -10 4
0 19 16 31 35 22 32 23 35 8 57 -9 12 -16 33 -16 45 0 19 -5 23 -31 23 -16 0
-28 -4 -25 -9 3 -5 -3 -11 -14 -14 -13 -3 -20 0 -20 9 0 8 4 14 10 14 5 0 20
11 34 25 14 14 32 25 41 25 8 0 15 5 15 10 0 6 14 10 30 10 17 0 30 5 30 10 0
6 12 4 29 -4 16 -9 31 -12 35 -9z m-5217 -14 c19 -17 17 -103 -2 -103 -21 0
-35 32 -35 79 0 42 11 49 37 24z m3578 -63 c7 -11 -17 -40 -33 -40 -15 0 -20
23 -8 37 13 15 33 16 41 3z m-377 -112 c7 -24 13 -74 15 -113 2 -64 0 -70 -18
-73 -12 -2 -37 11 -59 30 -33 28 -37 37 -29 53 6 11 15 31 21 45 27 68 44 100
50 100 4 0 13 -19 20 -42z m1516 -17 c9 -7 13 -17 10 -22 -3 -5 2 -9 10 -9 9
0 16 -4 16 -10 0 -5 7 -10 16 -10 12 0 15 -6 10 -26 -6 -23 -4 -26 13 -21 25
6 38 -10 22 -26 -6 -6 -11 -20 -10 -31 1 -18 2 -17 9 4 8 24 8 24 9 3 1 -29
-2 -39 -11 -35 -5 1 -8 -5 -8 -14 0 -8 -4 -13 -9 -9 -6 3 -15 -1 -22 -8 -11
-11 -21 -5 -61 36 -27 28 -48 58 -48 71 0 11 -3 44 -6 71 -6 49 -6 51 19 50
14 -1 33 -7 41 -14z m3736 -64 c0 -62 -11 -87 -37 -87 -9 0 -13 16 -13 50 0
28 4 50 9 50 5 0 12 11 15 25 12 46 26 25 26 -38z m-4988 8 c-2 -14 -6 -25 -8
-25 -2 0 -4 11 -4 25 0 14 4 25 9 25 4 0 6 -11 3 -25z m-3587 -64 c6 -29 25
-56 67 -98 12 -13 17 -23 10 -23 -6 0 -12 5 -12 10 0 6 -7 10 -15 10 -8 0 -15
3 -15 8 0 4 -14 23 -30 42 -16 19 -30 38 -30 42 0 3 -3 13 -6 22 -4 10 -1 16
9 16 9 0 18 -12 22 -29z m3511 -3 c-1 -12 -9 -24 -16 -26 -9 -3 -11 1 -7 12 4
10 7 24 7 32 0 9 4 12 10 9 5 -3 8 -16 6 -27z m-3926 -118 c0 -5 -6 -10 -14
-10 -8 0 -18 5 -21 10 -3 6 3 10 14 10 12 0 21 -4 21 -10z m5241 -29 c6 10 9
6 9 -13 0 -16 5 -28 10 -28 6 0 10 -7 10 -15 0 -8 -4 -15 -10 -15 -5 0 -10 -7
-10 -15 0 -8 -10 -25 -22 -37 l-21 -21 6 48 c4 26 8 64 8 84 1 20 4 27 6 17 4
-15 7 -16 14 -5z m672 -54 c16 -17 20 -37 7 -37 -5 0 -10 -7 -10 -15 0 -8 -3
-14 -7 -14 -13 3 -73 -25 -73 -33 0 -4 -8 -8 -19 -8 -33 0 -46 -28 -47 -107
-1 -55 -5 -79 -18 -91 -24 -24 -50 -4 -54 41 -2 22 -14 46 -33 66 -16 17 -29
36 -29 43 1 22 25 45 63 62 21 8 44 22 53 30 8 8 21 13 29 10 8 -4 15 -1 15 5
0 6 9 11 19 11 11 0 23 5 26 10 4 6 11 8 16 5 5 -4 9 -1 9 4 0 6 7 11 15 11 8
0 15 5 15 10 0 14 9 13 23 -3z m-538 -17 c-3 -5 -1 -10 4 -10 6 0 11 -8 10
-17 0 -11 -3 -13 -6 -5 -2 6 -13 12 -24 12 -10 0 -19 7 -19 15 0 8 9 15 21 15
11 0 17 -4 14 -10z m3335 -118 c0 -12 -38 -41 -44 -35 -3 4 -6 -3 -6 -14 0
-11 -7 -26 -15 -33 -8 -7 -15 -21 -15 -31 0 -11 7 -19 15 -19 9 0 15 -9 15
-25 0 -18 -5 -25 -20 -25 -38 0 -87 -38 -110 -85 -8 -16 -25 -44 -37 -61 -13
-17 -23 -35 -23 -39 0 -4 -10 -22 -22 -39 -13 -17 -34 -53 -48 -79 l-25 -48
-12 42 c-7 24 -13 97 -14 163 -1 71 -6 124 -12 128 -5 3 -10 35 -11 70 -1 62
0 63 27 66 30 4 117 -26 117 -39 0 -5 17 -9 38 -9 30 0 46 8 75 35 20 19 42
35 47 35 6 0 23 11 38 25 27 25 42 31 42 17z m-7911 -122 c8 -14 22 -38 30
-55 9 -16 22 -35 29 -43 6 -7 12 -18 12 -23 0 -5 24 -9 54 -9 45 0 58 4 70 22
11 16 18 19 28 10 8 -6 35 -12 62 -14 36 -2 52 -8 60 -23 17 -29 33 -45 48
-45 14 0 48 53 48 76 0 11 12 14 48 13 26 -1 57 2 70 6 31 10 29 -12 -5 -41
-16 -13 -31 -24 -35 -24 -4 0 -13 -6 -20 -12 -7 -7 -29 -21 -48 -31 -21 -10
-41 -31 -50 -50 -22 -51 -33 -57 -106 -57 -37 0 -84 -5 -103 -11 -58 -18 -151
-62 -151 -71 0 -4 -9 -8 -19 -8 -20 0 -31 18 -31 52 0 28 -33 132 -42 136 -5
2 -8 12 -8 21 0 12 15 24 45 35 36 14 45 22 45 41 0 13 -4 27 -10 30 -5 3 -10
16 -10 27 0 12 -3 18 -7 14 -7 -6 -43 58 -43 76 0 12 21 -11 39 -42z m2631
-190 c52 -24 53 -27 71 -111 10 -46 18 -100 18 -119 l0 -35 -24 30 c-14 17
-25 34 -25 39 0 10 -52 129 -60 136 -3 3 -12 26 -21 52 -11 33 -13 48 -5 51 6
2 15 -5 21 -16 5 -11 17 -23 25 -27z m2360 20 c0 -5 6 -10 14 -10 8 0 16 -7
20 -15 4 -11 -2 -15 -27 -15 -41 0 -59 12 -51 33 7 18 44 24 44 7z m-123 -77
c4 -10 13 -24 20 -31 18 -19 16 -49 -4 -57 -34 -12 -82 72 -56 98 12 13 34 7
40 -10z m3450 -84 c8 -8 8 -20 2 -39 -16 -44 -7 -121 15 -134 14 -8 20 -8 23
2 3 6 15 12 27 12 21 0 24 -6 29 -65 6 -67 2 -95 -15 -95 -20 0 -37 28 -40 66
-3 44 -27 57 -54 30 -16 -17 -16 -59 2 -283 4 -49 2 -73 -5 -73 -6 0 -11 -7
-11 -15 0 -8 -7 -15 -15 -15 -9 0 -15 9 -15 24 0 14 -5 28 -10 31 -6 3 -9 32
-9 64 2 66 -4 81 -31 81 -50 0 -75 -73 -39 -113 15 -16 15 -21 1 -52 -17 -38
-45 -46 -81 -23 -15 9 -28 9 -59 0 -62 -19 -66 -15 -32 28 17 22 38 40 47 40
25 0 43 27 70 101 14 40 36 88 49 107 13 19 24 41 24 49 0 17 -24 43 -39 43
-34 0 13 55 62 72 38 14 53 43 29 60 -32 23 -33 36 -6 61 14 14 31 30 38 35
15 14 29 15 43 1z m-4559 -25 c3 -16 1 -16 -7 -4 -8 12 -11 7 -12 -20 -1 -28
-3 -30 -6 -10 -3 14 -10 28 -17 33 -8 5 -7 10 4 17 20 13 34 7 38 -16z m602
-264 c0 -5 -4 -10 -10 -10 -5 0 -10 5 -10 10 0 6 5 10 10 10 6 0 10 -4 10 -10z
m-4189 -485 c19 -24 38 -45 42 -45 4 0 19 -11 33 -25 14 -14 30 -25 35 -25 41
0 74 -159 51 -245 -7 -25 -12 -55 -12 -68 0 -23 -40 -153 -61 -200 -7 -15 -17
-27 -23 -27 -14 0 -36 91 -36 148 0 23 -4 50 -9 60 -5 9 -14 55 -21 102 -7 47
-16 108 -21 135 -5 28 -13 82 -18 120 -5 39 -10 75 -11 80 -12 48 11 44 51
-10z m4511 -283 c4 -4 5 -17 2 -30 -5 -17 -14 -22 -40 -22 -26 0 -34 -4 -34
-18 0 -21 37 -47 42 -30 3 7 7 5 11 -5 4 -10 1 -17 -6 -18 -41 -3 -59 -7 -68
-16 -13 -13 -2 -36 12 -28 15 10 10 -15 -6 -31 -8 -9 -15 -11 -15 -5 0 6 -9
11 -20 11 -11 0 -20 -5 -20 -12 0 -18 -10 -3 -20 31 -6 23 -5 35 6 45 9 9 14
35 14 68 0 45 3 55 23 65 22 11 105 8 119 -5z m788 -127 c30 -60 31 -130 4
-214 -26 -80 -25 -79 -85 -67 l-51 10 7 64 c4 35 11 77 16 95 5 18 9 51 9 74
0 24 5 43 10 43 6 0 10 12 10 26 0 22 4 25 28 22 21 -2 32 -14 52 -53z m387 8
c1 -16 5 -38 8 -50 6 -20 4 -23 -19 -23 -14 0 -26 5 -26 10 0 6 -6 10 -12 10
-13 0 -38 44 -38 67 0 9 14 13 43 13 40 0 43 -2 44 -27z m-1557 -190 c0 -7 -9
-13 -21 -13 -11 0 -17 -4 -14 -10 3 -5 1 -18 -4 -27 -9 -16 -10 -16 -11 -1 0
9 -4 18 -10 20 -14 5 0 48 16 48 8 0 14 8 14 18 1 15 2 15 15 -2 8 -11 15 -26
15 -33z m24 -52 c8 -12 -3 -41 -15 -41 -5 0 -9 11 -9 25 0 25 14 34 24 16z
m520 -336 c-3 -6 -18 -16 -35 -24 -25 -11 -33 -11 -39 -1 -12 20 -2 35 28 46
28 10 53 -1 46 -21z"/>
<path d="M5932 6250 c0 -14 2 -19 5 -12 2 6 2 18 0 25 -3 6 -5 1 -5 -13z"/>
<path d="M3575 5430 c-3 -5 1 -10 9 -10 9 0 16 5 16 10 0 6 -4 10 -9 10 -6 0
-13 -4 -16 -10z"/>
<path d="M5591 2203 c-1 -25 -21 -32 -21 -8 0 8 -4 15 -10 15 -13 0 0 -33 17
-43 7 -4 13 -19 13 -31 0 -17 7 -26 26 -30 33 -9 52 7 36 27 -7 8 -9 17 -6 20
4 3 -5 9 -19 12 -18 5 -27 15 -30 33 -3 23 -4 24 -6 5z"/>
<path d="M2746 4155 c-3 -9 -6 -26 -5 -38 1 -14 4 -9 9 13 9 37 7 52 -4 25z"/>
<path d="M690 4265 c0 -8 4 -15 10 -15 5 0 7 7 4 15 -4 8 -8 15 -10 15 -2 0
-4 -7 -4 -15z"/>
<path d="M6334 4113 c-3 -10 -10 -27 -15 -38 -12 -28 -7 -133 6 -139 18 -6 75
25 75 40 0 8 5 14 10 14 14 0 13 43 -2 77 -13 29 -45 63 -60 63 -5 0 -11 -8
-14 -17z"/>
<path d="M6818 1623 c6 -2 18 -2 25 0 6 3 1 5 -13 5 -14 0 -19 -2 -12 -5z"/>
</g>
</svg>
